<svg xmlns="http://www.w3.org/2000/svg" xmlns:xlink="http://www.w3.org/1999/xlink" width="621" height="412" fill="none" xmlns:v="https://vecta.io/nano"><style><![CDATA[.B{fill:#737bf3}.C{color-interpolation-filters:sRGB}.D{flood-opacity:0}]]></style><path fill="url(#E)" d="M.313.152h620v411h-620z"/><g filter="url(#A)"><rect x="191.188" y="105.213" width="214.544" height="214.544" rx="18.604" fill="#fff"/></g><g filter="url(#B)"><path d="M252.273 280.816l-3.127-4.676c-.209.027-.391.027-.6.027h-3.467v4.649h-2.841v-15.987h6.308c4.04 0 6.543 2.148 6.543 5.682 0 2.42-1.173 4.215-3.259 5.058l3.545 5.247h-3.102zm-3.857-13.486h-3.337v6.39h3.337c2.502 0 3.779-1.197 3.779-3.209s-1.277-3.181-3.779-3.181z" class="B"/><path d="M267.679 273.665v7.151h-2.581v-1.495c-.651 1.06-1.928 1.658-3.675 1.658-2.658 0-4.353-1.523-4.353-3.643 0-2.04 1.33-3.644 4.875-3.644h3.023v-.19c0-1.659-.964-2.665-2.919-2.665-1.303 0-2.659.462-3.545 1.224l-1.069-2.067c1.251-1.006 3.076-1.495 4.953-1.495 3.336-.027 5.291 1.658 5.291 5.166zm-2.737 3.344v-1.414h-2.815c-1.851 0-2.372.735-2.372 1.632 0 1.033.834 1.686 2.242 1.686 1.329-.028 2.476-.653 2.945-1.904z" class="B"/><path d="M282.716 273.828v6.988h-2.737v-6.634c0-2.176-1.042-3.236-2.789-3.236-1.955 0-3.258 1.224-3.258 3.671v6.172h-2.737v-12.181h2.607v1.577c.912-1.115 2.32-1.713 4.04-1.713 2.789 0 4.874 1.685 4.874 5.356z" class="B"/><path d="M290.981 275.596l-2.033 2.012v3.208h-2.737V263.85h2.737v10.25l5.682-5.492h3.284l-4.9 5.112 5.343 7.069h-3.336l-4.04-5.193z" class="B"/><path d="M314.466 280.816l-.026-10.604-5.031 8.782h-1.277l-5.031-8.646v10.468h-2.71v-15.988h2.346l6.099 10.604 5.995-10.604h2.346l.026 15.988h-2.737z" class="B"/><path d="M330.835 273.665v7.151h-2.58v-1.495c-.652 1.06-1.929 1.658-3.676 1.658-2.658 0-4.352-1.523-4.352-3.643 0-2.04 1.329-3.617 4.874-3.617h3.023v-.19c0-1.659-.964-2.665-2.919-2.665-1.303 0-2.659.463-3.545 1.224l-1.069-2.094c1.252-1.006 3.076-1.495 4.953-1.495 3.336-.027 5.291 1.658 5.291 5.166zm-2.737 3.344v-1.414h-2.815c-1.85 0-2.372.735-2.372 1.632 0 1.033.834 1.686 2.242 1.686 1.329-.028 2.476-.653 2.945-1.904z" class="B"/><path d="M341.363 280.164c-.651.543-1.642.815-2.632.815-2.555 0-4.04-1.414-4.04-4.105v-5.873h-1.929v-2.284h1.929v-2.801h2.736v2.773h3.128v2.284h-3.128v5.819c0 1.196.574 1.822 1.616 1.822.548.027 1.095-.163 1.538-.49l.782 2.04z" class="B"/><path d="M355.154 273.828v6.988h-2.737v-6.634c0-2.175-1.043-3.236-2.789-3.236-1.955 0-3.258 1.224-3.258 3.671v6.172h-2.737V263.85h2.737v6.172c.912-1.006 2.293-1.55 3.909-1.55 2.789 0 4.875 1.686 4.875 5.356z" class="B"/><path d="M372.852 209.563l-24.513 1.12 4.295 7-40.795 27.25-40.438-17.731-47.057 20.437 3.22 8.213 43.748-19.038 41.332 18.104 44.552-29.676 4.295 7.092 11.361-22.771z" fill="url(#F)"/><path d="M241.699 235.694l29.612-12.879 1.432.653v-18.291h-31.044v30.517zm67.813-74.939v78.765l2.326 1.027 28.718-19.132v-60.66h-31.044zm-33.906 63.927l31.043 13.625v-55.341h-31.043v41.716z" fill="url(#G)"/></g><g filter="url(#C)"><circle cx="296.068" cy="96.982" r="33.728" fill="url(#H)"/></g><path d="M333.434 96.519h15.959" stroke="#808899" stroke-width=".93" stroke-linecap="round" stroke-dasharray="1.86 1.86"/><path d="M285.414 81.307s16.188-1.244 16.188 13.332-4.279 17.473-8.027 18.424c0 0 15.6 3.919 15.6-16.581s-19.898-17.545-23.761-15.176zm13.167 24.788s-1.564 5.659-6.288 6.375-5.603-1.955-8.887-1.773c0 0-.268-2.656 2.39-3.031s7.642.358 10.954-1.829c0 0 1.96-1.074 2.342-1.591l-.511 1.849zm-13.413-23.77v7.018 17.462a4.51 4.51 0 0 1 .502-.102c.799-.112 1.774-.131 2.807-.152l3.109-.143v-8.237-8.266c.098-1.601 1.286-3.088 2.706-3.669 1.246-.507 2.503-.319 3.619.248-5.344-4.126-11.341-4.203-12.743-4.159z" fill="#fff"/><g filter="url(#D)"><circle cx="399.722" cy="318.335" r="26.87" fill="#fff"/></g><path d="M400.193 320.522h-3.063v-3.55h3.063v-1.658h-3.063v-2.445l-5.818-.001c-2.72 0-4.948 2.244-5.072 5.05h-4.445v1.659h4.445a5.36 5.36 0 0 0 1.481 3.498c.959 1 2.235 1.551 3.591 1.551h5.818v-2.445h3.063v-1.659zm-8.881 2.445a3.39 3.39 0 0 1-2.466-1.065c-.659-.688-1.022-1.601-1.022-2.573v-1.163c0-2.007 1.565-3.639 3.488-3.639h4.228v8.44h-4.228z" fill="url(#I)"/><path d="M417.494 319.774v-1.659h-4.445a5.36 5.36 0 0 0-1.481-3.498 4.94 4.94 0 0 0-3.591-1.552h-5.818v11.758h5.818c2.72 0 4.948-2.243 5.072-5.049h4.445zm-9.517 3.39h-4.228v-8.44h4.228c.932 0 1.808.379 2.466 1.066s1.022 1.601 1.022 2.572v1.164c0 2.006-1.565 3.638-3.488 3.638z" fill="url(#J)"/><defs><filter id="A" x="159.562" y="95.912" width="277.795" height="277.796" filterUnits="userSpaceOnUse" class="C"><feFlood result="A" class="D"/><feColorMatrix in="SourceAlpha" values="0 0 0 0 0 0 0 0 0 0 0 0 0 0 0 0 0 0 127 0" result="B"/><feOffset dy="22.3242"/><feGaussianBlur stdDeviation="15.813"/><feComposite in2="B" operator="out"/><feColorMatrix values="0 0 0 0 0 0 0 0 0 0 0 0 0 0 0 0 0 0 0.12 0"/><feBlend in2="A"/><feBlend in="SourceGraphic"/></filter><filter id="B" x="212.251" y="148.663" width="189.435" height="161.152" filterUnits="userSpaceOnUse" class="C"><feFlood result="A" class="D"/><feColorMatrix in="SourceAlpha" values="0 0 0 0 0 0 0 0 0 0 0 0 0 0 0 0 0 0 127 0" result="B"/><feOffset dx="8.37157" dy="8.37157"/><feGaussianBlur stdDeviation="10.232"/><feComposite in2="B" operator="out"/><feColorMatrix values="0 0 0 0 0 0 0 0 0 0 0 0 0 0 0 0 0 0 0.1 0"/><feBlend in2="A"/><feBlend in="SourceGraphic"/></filter><filter id="C" x="212.11" y="53.952" width="167.916" height="167.915" filterUnits="userSpaceOnUse" class="C"><feFlood result="A" class="D"/><feColorMatrix in="SourceAlpha" values="0 0 0 0 0 0 0 0 0 0 0 0 0 0 0 0 0 0 127 0" result="B"/><feOffset dy="40.9277"/><feGaussianBlur stdDeviation="25.115"/><feComposite in2="B" operator="out"/><feColorMatrix values="0 0 0 0 0 0 0 0 0 0 0 0 0 0 0 0 0 0 0.16 0"/><feBlend in2="A"/><feBlend in="SourceGraphic"/></filter><filter id="D" x="352.852" y="271.465" width="73.738" height="73.74" filterUnits="userSpaceOnUse" class="C"><feFlood result="A" class="D"/><feColorMatrix in="SourceAlpha" values="0 0 0 0 0 0 0 0 0 0 0 0 0 0 0 0 0 0 127 0" result="B"/><feOffset dx="-10" dy="-10"/><feGaussianBlur stdDeviation="5"/><feComposite in2="B" operator="out"/><feColorMatrix values="0 0 0 0 0 0 0 0 0 0 0 0 0 0 0 0 0 0 0.1 0"/><feBlend in2="A"/><feBlend in="SourceGraphic"/></filter><linearGradient id="E" x1="310.312" y1=".152" x2="310.312" y2="411.152" xlink:href="#K"><stop stop-color="#c27efd"/><stop offset="1" stop-color="#3478eb"/></linearGradient><linearGradient id="F" x1="298.598" y1="209.563" x2="298.598" y2="255.852" xlink:href="#K"><stop stop-color="#c17efd"/><stop offset="1" stop-color="#3b79ec"/></linearGradient><linearGradient id="G" x1="291.128" y1="160.755" x2="291.128" y2="240.547" xlink:href="#K"><stop stop-color="#c17efd"/><stop offset="1" stop-color="#3b79ec"/></linearGradient><linearGradient id="H" x1="296.068" y1="63.254" x2="296.068" y2="130.71" xlink:href="#K"><stop stop-color="#ffd1ee"/><stop offset="1" stop-color="#ff6baf"/></linearGradient><linearGradient id="I" x1="397.863" y1="312.884" x2="386.146" y2="324.116" xlink:href="#K"><stop stop-color="#28cc70"/><stop offset="1" stop-color="#23b2d1"/></linearGradient><linearGradient id="J" x1="412.848" y1="313.268" x2="401.505" y2="324.141" xlink:href="#K"><stop stop-color="#28cc70"/><stop offset="1" stop-color="#23b2d1"/></linearGradient><linearGradient id="K" gradientUnits="userSpaceOnUse"/></defs></svg>