
        <svg xmlns="http://www.w3.org/2000/svg" xmlns:xlink="http://www.w3.org/1999/xlink" version="1.1" width="3162.335619455106" height="821.7623599532512" viewBox="0 0 3162.335619455106 821.7623599532512">
			
			<g transform="scale(8.116780972755302) translate(10, 10)">
				<defs id="SvgjsDefs2476"/><g id="SvgjsG2477" featureKey="symbolFeature-0" transform="matrix(1.0155377078929724,0,0,1.0155377078929724,-10.053822920743535,-10.155377078929725)" fill="#fff"><defs xmlns="http://www.w3.org/2000/svg"/><title xmlns="http://www.w3.org/2000/svg"/><path xmlns="http://www.w3.org/2000/svg" d="M18.84,43.23A47,47,0,0,1,35.2,44.94c6.17,1.59,12.9,4.34,19.64,6.73S68.31,56,74.48,56.12a27.13,27.13,0,0,0,15.57-4.21c0-.71,0-1.44,0-2.16,0-1.11,0-2.21-.13-3.3l-1,.38c-4.67,1.78-10.13,1.92-16,.42s-12-4.5-18.22-7.51-12.4-6-18.22-7.27a26.77,26.77,0,0,0-15.95.76A34.06,34.06,0,0,0,11,39.12,38.44,38.44,0,0,0,9.9,44.83,64.06,64.06,0,0,1,18.84,43.23Z" style="fill-rule: evenodd;"/><path xmlns="http://www.w3.org/2000/svg" d="M69,21.63c4.65,4,9.15,6.91,13.35,8.24a21.61,21.61,0,0,0,2.89.75,40.38,40.38,0,0,0-2.62-4.2c-.68-.36-1.36-.77-2-1.22A54,54,0,0,1,69,14.35a39.78,39.78,0,0,0-11.8-4.18C61.2,14.19,65.17,18.31,69,21.63Z" style="fill-rule: evenodd;"/><path xmlns="http://www.w3.org/2000/svg" d="M23.11,19.8c4.38-1.42,9.43-1.07,14.83.91s11.15,5.46,16.9,9,11.5,7.13,16.9,9.17,10.46,2.72,14.84,1.79a20.38,20.38,0,0,0,2.36-.6c-.33-1.32-.72-2.6-1.17-3.86a20.3,20.3,0,0,1-3-.15C80.3,35.59,75.4,33.44,70.35,30S60.06,22,54.84,17.8A69.38,69.38,0,0,0,43.47,10a40.11,40.11,0,0,0-20.6,9.87Z" style="fill-rule: evenodd;"/><path xmlns="http://www.w3.org/2000/svg" d="M72.33,83.14a70.74,70.74,0,0,1-17.49.48c-8.19-.66-16.39-2-23.79-2.57-2.45-.22-4.81-.36-7.06-.45a40.27,40.27,0,0,0,48.34,2.54Z" style="fill-rule: evenodd;"/><path xmlns="http://www.w3.org/2000/svg" d="M32.42,69.23c6.95,1.23,14.68,3.19,22.42,4.38s15.46,1.55,22.41-.34a34,34,0,0,0,7.07-2.72,40.32,40.32,0,0,0,4.28-9.88,30.39,30.39,0,0,1-12.78,3.76c-6.6.54-13.79-.92-21-2.75s-14.38-4-21-5a53.7,53.7,0,0,0-17.49,0c-2.24.35-4.24.82-5.94,1.13a40.25,40.25,0,0,0,2.88,8.77l1.21.16C19.28,67.32,25.46,67.91,32.42,69.23Z" style="fill-rule: evenodd;"/></g><g id="SvgjsG2478" featureKey="nameFeature-0" transform="matrix(1.7500257403373947,0,0,1.7500257403373947,95.3299190880492,-6.170337063608798)" fill="#fff"><path d="M12.44 13.239999999999998 c3.44 0 5.84 0.76 7.36 2.4 c1.2 1.32 1.76 3.2 1.76 5.88 l0 10.52 c0 2.76 -0.56 4.68 -1.76 5.96 c-1.56 1.6 -3.92 2.4 -7.36 2.4 c-3.56 0 -5.88 -0.8 -7.4 -2.4 c-1.16 -1.28 -1.8 -3.2 -1.8 -5.96 l0 -10.52 c0 -2.68 0.64 -4.56 1.8 -5.92 c1.56 -1.6 3.92 -2.36 7.4 -2.36 z M16.24 30.84 l0 -8 c0 -3.52 -1.88 -4.24 -3.6 -4.24 l-0.48 0 c-2.56 0 -3.56 1.64 -3.56 4.24 l0 8 c0 3.52 1.88 4.28 3.56 4.28 l0.48 0 c2.56 0 3.56 -1.72 3.6 -4.28 z M5.76 21.8 l0 9.92 c0 1.88 0.48 3.44 1.6 4.6 c1.04 1.04 2.64 1.6 4.6 1.6 l1.04 0 c3.76 0 6.2 -2.4 6.2 -6.2 l0 -9.92 c0 -4.08 -2.16 -6.28 -6.2 -6.28 l-1.04 0 c-4.08 0 -6.2 2.2 -6.2 6.28 z M13 37.4 l-1.04 0 c-1.88 0 -3.28 -0.48 -4.28 -1.48 s-1.52 -2.4 -1.52 -4.2 l0 -9.92 c0 -3.8 2.04 -5.8 5.8 -5.8 l1.04 0 c3.8 0 5.68 1.96 5.68 5.8 l0 9.92 c0 1.68 -0.52 3.2 -1.6 4.24 c-1.04 0.88 -2.44 1.44 -4.08 1.44 z M38.88 13.600000000000001 c2.72 0 4.76 0.76 6.12 2.24 c1.2 1.32 1.8 3.28 1.8 5.68 l0 10.6 c0 4.84 -2.8 7.88 -7.92 7.88 l-10 0 c-0.2 0 -0.32 -0.16 -0.32 -0.36 l0 -25.68 c0 -0.2 0.12 -0.36 0.32 -0.36 l10 0 z M41.56 30.92 l0 -8.2 c0 -2.52 -1.32 -4.12 -4.12 -4.12 l-3.6 0 l0 16.4 l3.6 0 c2.4 0 4.12 -1.56 4.12 -4.08 z M31 16.04 l0 21.52 c0 0.16 0.16 0.2 0.24 0.2 l6.52 0 c4.6 0 6.68 -2.76 6.68 -5.32 l0 -10.24 c0 -4.24 -2.24 -6.4 -6.8 -6.4 l-6.4 0 c-0.08 0 -0.24 0.04 -0.24 0.24 z M43.96 22.2 l0 10.24 c0 3.2 -3.2 4.88 -6.2 4.88 l-6.28 0 l0 -21 l6.16 0 c4.2 0 6.32 1.88 6.32 5.88 z M56.800000000000004 13.8 l3.48 6.72 l3.4 -6.72 c0.12 -0.2 0.16 -0.2 0.32 -0.2 l4.48 0 c0.24 0 0.4 0.24 0.32 0.44 l-5.8 13.48 l0 12.12 c0 0.2 -0.16 0.36 -0.36 0.36 l-4.72 0 c-0.12 0 -0.28 -0.16 -0.28 -0.36 l0 -12.12 l-5.96 -13.4 c-0.08 -0.28 0.04 -0.52 0.32 -0.52 l4.48 0 c0.16 0 0.2 0 0.32 0.2 z M60.480000000000004 26.6 l5 -10.4 c0.12 -0.24 -0.28 -0.44 -0.44 -0.16 l-4.76 9.96 l-4.88 -9.96 c-0.16 -0.28 -0.6 -0.08 -0.48 0.2 l5.12 10.36 l0 11.04 c0 0.28 0.44 0.32 0.44 0 l0 -11.04 z M83.24000000000001 23.8 c3.04 1.44 7 3.72 7 7.84 c0 1.2 -0.2 3.52 -1.52 5.48 c-1.48 2.2 -3.8 3.28 -7 3.28 c-3.4 0 -7.36 -1.64 -8.6 -5.36 c-0.04 -0.12 0 -0.24 0.12 -0.32 l3.68 -3.16 c0.16 -0.12 0.4 -0.12 0.52 0.08 c0.08 0.2 0.24 0.52 0.44 0.92 c0.6 1.24 2.04 2.48 3.64 2.48 c1.24 0 2.92 -0.68 2.92 -2.6 c0 -1.84 -2.52 -2.88 -4.08 -3.48 c-1.8 -0.72 -3.64 -1.64 -5.2 -3 c-1.64 -1.52 -2.44 -3.2 -2.44 -5.2 c0 -5 4.6 -7.52 8.96 -7.52 c3.44 0 6 1.8 7.68 5.36 c0.08 0.16 0 0.36 -0.12 0.44 l-3.56 2.48 c-0.16 0.08 -0.24 0.08 -0.4 -0.12 c-1.36 -1.96 -2.56 -2.88 -4.16 -2.88 c-0.84 0 -2.8 0.32 -2.8 1.8 c0 1.8 3.32 2.72 4.92 3.48 z M75.96000000000001 34.84 c1 2 3.76 3.16 6 3.16 c2.92 0 5.28 -2 5.6 -5.04 c0.4 -3.72 -2.52 -5.32 -5.4 -6.76 l-1.28 -0.56 c-2.96 -1.32 -5.12 -2.32 -5.12 -5.08 c0 -3.04 2.8 -4.44 5.56 -4.44 c2.52 0 3.84 1.48 4.52 2.4 c0.24 0.32 0.64 0.04 0.4 -0.28 c-0.68 -0.84 -2.12 -2.6 -4.92 -2.6 c-3.16 0 -6.04 1.56 -6.04 4.92 c0 3 2.4 4.16 5.44 5.56 l1.24 0.6 c3.96 1.88 5.4 3.64 5.08 6.2 c-0.6 4.08 -3.72 4.6 -5.08 4.6 c-3 0 -5 -1.8 -5.6 -2.92 c-0.2 -0.2 -0.48 0 -0.4 0.24 z M105.24000000000001 23.8 c3.04 1.44 7 3.72 7 7.84 c0 1.2 -0.2 3.52 -1.52 5.48 c-1.48 2.2 -3.8 3.28 -7 3.28 c-3.4 0 -7.36 -1.64 -8.6 -5.36 c-0.04 -0.12 0 -0.24 0.12 -0.32 l3.68 -3.16 c0.16 -0.12 0.4 -0.12 0.52 0.08 c0.08 0.2 0.24 0.52 0.44 0.92 c0.6 1.24 2.04 2.48 3.64 2.48 c1.24 0 2.92 -0.68 2.92 -2.6 c0 -1.84 -2.52 -2.88 -4.08 -3.48 c-1.8 -0.72 -3.64 -1.64 -5.2 -3 c-1.64 -1.52 -2.44 -3.2 -2.44 -5.2 c0 -5 4.6 -7.52 8.96 -7.52 c3.44 0 6 1.8 7.68 5.36 c0.08 0.16 0 0.36 -0.12 0.44 l-3.56 2.48 c-0.16 0.08 -0.24 0.08 -0.4 -0.12 c-1.36 -1.96 -2.56 -2.88 -4.16 -2.88 c-0.84 0 -2.8 0.32 -2.8 1.8 c0 1.8 3.32 2.72 4.92 3.48 z M97.96000000000001 34.84 c1 2 3.76 3.16 6 3.16 c2.92 0 5.28 -2 5.6 -5.04 c0.4 -3.72 -2.52 -5.32 -5.4 -6.76 l-1.28 -0.56 c-2.96 -1.32 -5.12 -2.32 -5.12 -5.08 c0 -3.04 2.8 -4.44 5.56 -4.44 c2.52 0 3.84 1.48 4.52 2.4 c0.24 0.32 0.64 0.04 0.4 -0.28 c-0.68 -0.84 -2.12 -2.6 -4.92 -2.6 c-3.16 0 -6.04 1.56 -6.04 4.92 c0 3 2.4 4.16 5.44 5.56 l1.24 0.6 c3.96 1.88 5.4 3.64 5.08 6.2 c-0.6 4.08 -3.72 4.6 -5.08 4.6 c-3 0 -5 -1.8 -5.6 -2.92 c-0.2 -0.2 -0.48 0 -0.4 0.24 z M118.56 40 c-0.2 0 -0.32 -0.16 -0.32 -0.36 l0 -25.68 c0 -0.2 0.12 -0.36 0.32 -0.36 l13.6 0 c0.2 0 0.36 0.16 0.36 0.36 l0 4.28 c0 0.2 -0.16 0.36 -0.36 0.36 l-8.64 0 l0 5.44 l6.72 0 c0.2 0 0.32 0.16 0.32 0.36 l0 4.36 c0 0.2 -0.12 0.36 -0.32 0.36 l-6.72 0 l0 5.88 l8.64 0 c0.2 0 0.36 0.16 0.36 0.36 l0 4.28 c0 0.2 -0.16 0.36 -0.36 0.36 l-13.6 0 z M120.56 16.12 l0 21.28 c0 0.24 0.16 0.32 0.32 0.32 l9.2 0 c0.36 0 0.28 -0.48 0 -0.48 l-9 0 l0 -10.44 l7.36 0 c0.24 0 0.24 -0.56 0 -0.56 l-7.36 0 l0 -9.92 l9 0 c0.28 0 0.36 -0.52 0 -0.52 l-9.2 0 c-0.16 0 -0.32 0.12 -0.32 0.32 z M144.28 13.84 c0.04 -0.12 0.12 -0.24 0.28 -0.24 l4.96 0 c0.16 0 0.24 0.12 0.28 0.24 l6.92 25.72 c0.04 0.24 -0.12 0.44 -0.36 0.44 l-4.56 0 c-0.12 0 -0.24 -0.08 -0.28 -0.24 l-1.56 -5.6 l-5.84 0 l-1.52 5.6 c-0.04 0.16 -0.12 0.24 -0.28 0.24 l-4.6 0 c-0.24 0 -0.4 -0.2 -0.36 -0.44 z M145.4 29.2 l3.32 0 l-1.72 -6.04 z M151.56 31.560000000000002 l1.84 6 c0.08 0.24 0.52 0.2 0.4 -0.12 l-6.4 -21.28 c-0.12 -0.52 -0.8 -0.56 -0.92 0 l-6.2 21.28 c-0.12 0.28 0.32 0.4 0.44 0.16 l1.76 -6.04 l9.08 0 z M142.60000000000002 31.04 l4.36 -14.72 l4.44 14.72 l-8.8 0 z"/></g>
			</g>
		</svg>
	